HIERARCHY
ROOT Hips
{
 OFFSET 0.000000 0.000000 0.000000
 CHANNELS 6 Xposition Yposition Zposition Yrotation Xrotation Zrotation
 JOINT Chest
 {
  OFFSET 0.000000 10.354800 0.006500
  CHANNELS 3 Yrotation Xrotation Zrotation
  JOINT Chest2
  {
   OFFSET 0.000000 10.435800 -0.013200
   CHANNELS 3 Yrotation Xrotation Zrotation
   JOINT Chest3
   {
    OFFSET 0.000000 10.393700 0.000000
    CHANNELS 3 Yrotation Xrotation Zrotation
    JOINT Chest4
    {
     OFFSET 0.000000 10.383100 0.000000
     CHANNELS 3 Yrotation Xrotation Zrotation
     JOINT Neck
     {
      OFFSET 0.000000 15.694000 0.000000
      CHANNELS 3 Yrotation Xrotation Zrotation
      JOINT Head
      {
       OFFSET 0.000000 9.711000 -0.028000
       CHANNELS 3 Yrotation Xrotation Zrotation
       End Site
       {
        OFFSET 0.000000 18.578700 -0.014800
       }
      }
     }
     JOINT RightCollar
     {
      OFFSET -3.157200 10.367500 0.000000
      CHANNELS 3 Yrotation Xrotation Zrotation
      JOINT RightShoulder
      {
       OFFSET -14.482500 0.000000 0.000000
       CHANNELS 3 Yrotation Xrotation Zrotation
       JOINT RightElbow
       {
        OFFSET 0.000000 -31.707800 0.000000
        CHANNELS 3 Yrotation Xrotation Zrotation
        JOINT RightWrist
        {
         OFFSET 0.000000 -25.659300 0.000000
         CHANNELS 3 Yrotation Xrotation Zrotation
         End Site
         {
          OFFSET 0.000000 -18.994300 0.000000
         }
        }
       }
      }
     }
     JOINT LeftCollar
     {
      OFFSET 3.157200 10.367500 0.000000
      CHANNELS 3 Yrotation Xrotation Zrotation
      JOINT LeftShoulder
      {
       OFFSET 14.482500 0.000000 0.000000
       CHANNELS 3 Yrotation Xrotation Zrotation
       JOINT LeftElbow
       {
        OFFSET 0.000000 -31.707800 0.000000
        CHANNELS 3 Yrotation Xrotation Zrotation
        JOINT LeftWrist
        {
         OFFSET 0.000000 -25.659300 0.000000
         CHANNELS 3 Yrotation Xrotation Zrotation
         End Site
         {
          OFFSET 0.000000 -18.994300 0.000000
         }
        }
       }
      }
     }
    }
   }
  }
 }
 JOINT RightHip
 {
  OFFSET -8.365600 -0.032100 -0.003200
  CHANNELS 3 Yrotation Xrotation Zrotation
  JOINT RightKnee
  {
   OFFSET 0.000000 -43.980000 0.003100
   CHANNELS 3 Yrotation Xrotation Zrotation
   JOINT RightAnkle
   {
    OFFSET 0.000000 -42.882800 0.005200
    CHANNELS 3 Yrotation Xrotation Zrotation
    JOINT RightToe
    {
     OFFSET 0.000000 -4.915500 10.826300
     CHANNELS 3 Yrotation Xrotation Zrotation
     End Site
     {
      OFFSET 0.000000 -1.517500 6.175900
     }
    }
   }
  }
 }
 JOINT LeftHip
 {
  OFFSET 8.365600 -0.032100 -0.003200
  CHANNELS 3 Yrotation Xrotation Zrotation
  JOINT LeftKnee
  {
   OFFSET 0.000000 -43.980000 0.003100
   CHANNELS 3 Yrotation Xrotation Zrotation
   JOINT LeftAnkle
   {
    OFFSET 0.000000 -42.882800 0.005200
    CHANNELS 3 Yrotation Xrotation Zrotation
    JOINT LeftToe
    {
     OFFSET 0.000000 -4.915500 10.826300
     CHANNELS 3 Yrotation Xrotation Zrotation
     End Site
     {
      OFFSET 0.000000 -1.517500 6.175900
     }
    }
   }
  }
 }
}
MOTION
Frames: 8
Frame Time: 0.008333
0.000000 91.618600 0.000000 0.000000 -5.767877 0.000000 0.000000 11.653817 0.000000 0.000000 -5.885947 0.000000 0.000000 -0.000000 0.000000 0.000000 -0.000000 0.000000 0.000000 12.528835 0.000000 0.000000 0.711642 0.000000 0.000000 -0.000000 0.000000 0.000000 0.000000 -90.000000 0.000000 -2.309062 0.000000 0.000000 2.309062 0.000000 0.000000 -0.000000 0.000000 0.000000 -0.000000 90.000000 0.000000 -2.309062 0.000000 0.000000 2.309062 0.000000 0.000000 8.520406 0.000000 0.000000 1.905762 0.000000 -0.000000 -4.658285 0.000000 0.000000 -0.000000 0.000000 0.000000 8.520406 0.000000 0.000000 1.905762 0.000000 -0.000000 -4.658285 0.000000 0.000000 -0.000000 0.000000
-4.762464 127.350075 29.815434 177.904866 -39.510620 -4.450284 -7.140458 18.709417 -0.351629 -0.866505 2.308766 0.083213 -1.422238 3.792275 0.118369 -6.112033 16.092117 -0.157665 0.291122 21.719004 -3.344802 1.077989 -2.489807 -3.662220 7.485820 8.710151 -6.327662 -8.654463 -26.835431 -0.768244 -137.269565 -69.322410 140.044182 -13.054610 -28.586824 -50.523561 -6.811568 5.444040 -0.937953 -26.720164 -47.522306 4.522170 36.978805 -56.298302 -61.232399 25.549011 -13.076131 16.557119 6.485025 -43.179014 7.633029 -118.488912 79.668372 -113.024866 1.396257 -15.347605 -14.122637 0.012716 0.004741 0.005774 -11.319694 -41.898292 4.149503 89.238095 81.448746 81.473490 -5.789920 -7.125559 2.350752 -0.002434 0.016721 -0.001105
-4.764124 127.356422 29.824593 177.922469 -39.669731 -4.484709 -7.131027 18.760242 -0.386115 -0.866854 2.323028 0.079444 -1.422467 3.814677 0.112038 -6.098854 16.139026 -0.186140 0.355186 21.692423 -3.376687 1.154245 -2.518250 -3.711406 7.449832 8.550603 -6.279333 -8.319617 -26.611111 -0.952020 -136.126573 -69.315452 139.165560 -13.053161 -28.383065 -50.231613 -6.822719 5.434326 -0.998910 -26.330270 -47.303487 4.509949 36.937061 -56.435304 -61.267793 25.444485 -12.823222 16.287670 6.478041 -43.028128 7.660002 -118.464257 79.668981 -112.988898 1.387460 -15.311059 -14.103158 0.014227 0.000694 0.006460 -11.270661 -41.738386 4.110356 89.129645 81.452651 81.376832 -5.786190 -7.110391 2.368289 -0.004477 0.011525 -0.002033
-4.765936 127.361501 29.837955 177.943336 -39.833147 -4.524747 -7.118884 18.817702 -0.416589 -0.867344 2.337455 0.075215 -1.423032 3.837339 0.104894 -6.087311 16.185845 -0.218015 0.431004 21.658930 -3.414411 1.244502 -2.554135 -3.769629 7.405990 8.382407 -6.228610 -7.975796 -26.364433 -1.137499 -134.831186 -69.309804 138.155177 -13.110885 -28.129431 -49.855094 -6.855244 5.428279 -1.074058 -25.916748 -47.033177 4.531027 37.027980 -56.566353 -61.446532 25.296912 -12.481904 16.049002 6.470646 -42.874254 7.682652 -118.460085 79.675158 -112.968894 1.378103 -15.274399 -14.081395 0.015258 -0.001885 0.006927 -11.222766 -41.576938 4.062428 89.065075 81.446783 81.334380 -5.754409 -7.103457 2.377866 -0.000292 0.008898 -0.000133
-4.769637 127.365553 29.854168 177.966600 -39.999019 -4.557483 -7.104345 18.877124 -0.454095 -0.877875 2.399541 0.092755 -1.414001 3.811871 0.075058 -6.073930 16.232829 -0.253880 0.517498 21.617772 -3.456612 1.347252 -2.598470 -3.835125 7.346726 8.205315 -6.173747 -7.606784 -26.093011 -1.331172 -133.464344 -69.327123 137.070781 -13.255341 -27.799198 -49.379654 -6.906962 5.439679 -1.156890 -25.521255 -46.715253 4.603195 37.322953 -56.686636 -61.822303 25.129130 -12.029450 15.899520 6.446010 -42.712627 7.715361 -118.352722 79.657273 -112.877721 1.387642 -15.246194 -14.042898 0.015413 -0.002389 0.006998 -11.166143 -41.417119 3.995502 89.006739 81.437002 81.303551 -5.766040 -7.095937 2.391893 -0.000635 0.006841 -0.000288
-4.776210 127.368198 29.872780 178.000845 -40.159199 -4.580171 -7.093723 18.927351 -0.507937 -0.896540 2.463695 0.113356 -1.394316 3.782785 0.040218 -6.054974 16.278970 -0.292932 0.611708 21.570976 -3.500297 1.458675 -2.648969 -3.903992 7.264171 8.024649 -6.110548 -7.203989 -25.796676 -1.533325 -132.061453 -69.379646 135.935698 -13.481949 -27.340240 -48.801686 -6.975020 5.483611 -1.239220 -25.147396 -46.359700 4.718856 37.844635 -56.794522 -62.415836 24.971383 -11.457817 15.857857 6.427723 -42.553579 7.721865 -118.292400 79.643167 -112.832943 1.379314 -15.242541 -13.989018 0.016774 -0.003786 0.007616 -11.107138 -41.268270 3.906329 88.803461 81.451517 81.107855 -5.726114 -7.061790 2.422703 -0.006328 0.001394 -0.002873
-4.782023 127.371289 29.891578 178.032692 -40.324528 -4.601290 -7.065798 18.978936 -0.561912 -0.874166 2.404078 0.071662 -1.407328 3.875571 0.064871 -6.027166 16.322757 -0.334623 0.711802 21.521682 -3.542326 1.576130 -2.702069 -3.972438 7.156007 7.852677 -6.032036 -6.774262 -25.482427 -1.742938 -130.612596 -69.464474 134.739622 -13.762674 -26.691731 -48.120002 -7.058060 5.563333 -1.316037 -24.731515 -45.966383 4.831900 38.562001 -56.892970 -63.233665 24.840475 -10.757366 15.895354 6.433949 -42.385020 7.677829 -118.366349 79.671457 -112.894523 1.392439 -15.253591 -13.957171 0.006377 -0.002860 0.002895 -11.052761 -41.116383 3.812684 88.721990 81.450470 81.044705 -5.694230 -7.046526 2.434134 -0.004484 -0.001463 -0.002036
-4.785729 127.374789 29.910429 178.075052 -40.490115 -4.634255 -7.022338 19.027373 -0.607609 -0.859218 2.388996 0.051842 -1.408890 3.918279 0.066205 -5.989086 16.362517 -0.380212 0.816402 21.472449 -3.579055 1.697242 -2.755020 -4.036284 7.021192 7.713009 -5.936866 -6.335804 -25.165290 -1.952732 -129.096159 -69.564626 133.477240 -14.086535 -25.809941 -47.340728 -7.154519 5.673315 -1.386028 -24.185323 -45.520243 4.888781 39.417458 -56.988681 -64.276260 24.740504 -9.895524 15.952444 6.399449 -42.216042 7.687487 -118.385600 79.686580 -112.919556 1.380847 -15.257566 -13.938537 0.013014 -0.007412 0.005908 -11.021016 -40.962481 3.726592 88.639786 81.455832 80.978884 -5.665577 -7.040783 2.455961 -0.003832 -0.003801 -0.001740
